<?xml version="1.0" encoding="UTF-8"?><svg id="Camada_2" xmlns="http://www.w3.org/2000/svg" xmlns:xlink="http://www.w3.org/1999/xlink" viewBox="0 0 198.1 198.1"><defs><style>.cls-1{clip-path:url(#clippath);}.cls-2{stroke-width:0px;}.cls-2,.cls-3,.cls-4,.cls-5,.cls-6,.cls-7,.cls-8,.cls-9,.cls-10,.cls-11,.cls-12,.cls-13,.cls-14,.cls-15,.cls-16,.cls-17,.cls-18{fill:none;}.cls-3{stroke:url(#Gradiente_sem_nome_3);}.cls-3,.cls-4,.cls-5,.cls-6,.cls-7,.cls-8,.cls-9,.cls-10,.cls-11,.cls-12,.cls-13,.cls-14,.cls-15,.cls-16,.cls-17,.cls-18{stroke-miterlimit:4;stroke-width:9px;}.cls-4{stroke:url(#Gradiente_sem_nome_3-5);}.cls-5{stroke:url(#Gradiente_sem_nome_3-7);}.cls-6{stroke:url(#Gradiente_sem_nome_3-4);}.cls-7{stroke:url(#Gradiente_sem_nome_3-3);}.cls-8{stroke:url(#Gradiente_sem_nome_3-2);}.cls-9{stroke:url(#Gradiente_sem_nome_3-8);}.cls-10{stroke:url(#Gradiente_sem_nome_3-9);}.cls-11{stroke:url(#Gradiente_sem_nome_3-6);}.cls-12{stroke:url(#Gradiente_sem_nome_3-16);}.cls-13{stroke:url(#Gradiente_sem_nome_3-11);}.cls-14{stroke:url(#Gradiente_sem_nome_3-10);}.cls-15{stroke:url(#Gradiente_sem_nome_3-14);}.cls-16{stroke:url(#Gradiente_sem_nome_3-13);}.cls-17{stroke:url(#Gradiente_sem_nome_3-15);}.cls-18{stroke:url(#Gradiente_sem_nome_3-12);}</style><clipPath id="clippath"><circle class="cls-2" cx="99.05" cy="99.05" r="99.04"/></clipPath><linearGradient id="Gradiente_sem_nome_3" x1="-17.62" y1="93.85" x2="210.43" y2="93.85" gradientUnits="userSpaceOnUse"><stop offset="0" stop-color="#92acce"/><stop offset="1" stop-color="#cf9993"/></linearGradient><linearGradient id="Gradiente_sem_nome_3-2" x1="-15.94" y1="69.9" x2="212.11" y2="69.9" xlink:href="#Gradiente_sem_nome_3"/><linearGradient id="Gradiente_sem_nome_3-3" x1="-27.91" y1="240.55" x2="200.14" y2="240.55" xlink:href="#Gradiente_sem_nome_3"/><linearGradient id="Gradiente_sem_nome_3-4" x1="-14.19" y1="44.95" x2="213.86" y2="44.95" xlink:href="#Gradiente_sem_nome_3"/><linearGradient id="Gradiente_sem_nome_3-5" x1="-12.51" y1="20.99" x2="215.54" y2="20.99" xlink:href="#Gradiente_sem_nome_3"/><linearGradient id="Gradiente_sem_nome_3-6" x1="-26.16" y1="215.6" x2="201.89" y2="215.6" xlink:href="#Gradiente_sem_nome_3"/><linearGradient id="Gradiente_sem_nome_3-7" x1="-10.76" y1="-3.96" x2="217.29" y2="-3.96" xlink:href="#Gradiente_sem_nome_3"/><linearGradient id="Gradiente_sem_nome_3-8" x1="-9.08" y1="-27.91" x2="218.97" y2="-27.91" xlink:href="#Gradiente_sem_nome_3"/><linearGradient id="Gradiente_sem_nome_3-9" x1="-24.48" y1="191.65" x2="203.57" y2="191.65" xlink:href="#Gradiente_sem_nome_3"/><linearGradient id="Gradiente_sem_nome_3-10" x1="-7.4" y1="-51.86" x2="220.65" y2="-51.86" xlink:href="#Gradiente_sem_nome_3"/><linearGradient id="Gradiente_sem_nome_3-11" x1="-5.65" y1="-76.81" x2="222.4" y2="-76.81" xlink:href="#Gradiente_sem_nome_3"/><linearGradient id="Gradiente_sem_nome_3-12" x1="-22.8" y1="167.7" x2="205.25" y2="167.7" xlink:href="#Gradiente_sem_nome_3"/><linearGradient id="Gradiente_sem_nome_3-13" x1="-21.05" y1="142.75" x2="207" y2="142.75" xlink:href="#Gradiente_sem_nome_3"/><linearGradient id="Gradiente_sem_nome_3-14" x1="-31.34" y1="289.46" x2="196.71" y2="289.46" xlink:href="#Gradiente_sem_nome_3"/><linearGradient id="Gradiente_sem_nome_3-15" x1="-19.3" y1="117.8" x2="208.75" y2="117.8" xlink:href="#Gradiente_sem_nome_3"/><linearGradient id="Gradiente_sem_nome_3-16" x1="-29.59" y1="264.51" x2="198.46" y2="264.51" xlink:href="#Gradiente_sem_nome_3"/></defs><g id="Camada_1-2"><g class="cls-1"><g id="Grupo_de_máscara_17"><g id="Grupo_336"><line id="Linha_314" class="cls-3" x1="-14.67" y1="190.36" x2="207.48" y2="-2.66"/><line id="Linha_315" class="cls-8" x1="-12.99" y1="166.41" x2="209.16" y2="-26.62"/><line id="Linha_316" class="cls-7" x1="-24.96" y1="337.07" x2="197.19" y2="144.04"/><line id="Linha_319" class="cls-6" x1="-11.24" y1="141.46" x2="210.91" y2="-51.57"/><line id="Linha_320" class="cls-4" x1="-9.56" y1="117.51" x2="212.59" y2="-75.52"/><line id="Linha_321" class="cls-11" x1="-23.21" y1="312.12" x2="198.94" y2="119.09"/><line id="Linha_324" class="cls-5" x1="-7.81" y1="92.56" x2="214.34" y2="-100.47"/><line id="Linha_325" class="cls-9" x1="-6.13" y1="68.6" x2="216.02" y2="-124.42"/><line id="Linha_326" class="cls-10" x1="-21.53" y1="288.16" x2="200.62" y2="95.14"/><line id="Linha_329" class="cls-14" x1="-4.45" y1="44.65" x2="217.7" y2="-148.37"/><line id="Linha_330" class="cls-13" x1="-2.7" y1="19.7" x2="219.45" y2="-173.32"/><line id="Linha_331" class="cls-18" x1="-19.85" y1="264.21" x2="202.3" y2="71.19"/><line id="Linha_336" class="cls-16" x1="-18.1" y1="239.26" x2="204.05" y2="46.24"/><line id="Linha_337" class="cls-15" x1="-28.39" y1="385.97" x2="193.76" y2="192.94"/><line id="Linha_341" class="cls-17" x1="-16.35" y1="214.31" x2="205.8" y2="21.29"/><line id="Linha_342" class="cls-12" x1="-26.64" y1="361.02" x2="195.51" y2="167.99"/></g></g></g></g></svg>