<?xml version="1.0" encoding="UTF-8"?><svg id="Camada_2" xmlns="http://www.w3.org/2000/svg" xmlns:xlink="http://www.w3.org/1999/xlink" viewBox="0 0 41 41"><defs><style>.cls-1{fill:url(#Gradiente_sem_nome_62-2);}.cls-1,.cls-2,.cls-3{stroke-width:0px;}.cls-2{fill:url(#Gradiente_sem_nome_62);}.cls-3{fill:#fff;}</style><linearGradient id="Gradiente_sem_nome_62" x1="0" y1="20.5" x2="41" y2="20.5" gradientUnits="userSpaceOnUse"><stop offset="0" stop-color="#1a4480"/><stop offset=".36" stop-color="#1c4581"/><stop offset=".52" stop-color="#234c86"/><stop offset=".65" stop-color="#30578e"/><stop offset=".76" stop-color="#42679a"/><stop offset=".85" stop-color="#5a7caa"/><stop offset=".94" stop-color="#7795bc"/><stop offset="1" stop-color="#92acce"/></linearGradient><linearGradient id="Gradiente_sem_nome_62-2" x1="5.94" y1="22.39" x2="27.8" y2="18.19" xlink:href="#Gradiente_sem_nome_62"/></defs><g id="Camada_1-2"><g id="Grupo_267"><g id="Grupo_89-6"><g id="Elipse_1-7"><circle class="cls-3" cx="20.5" cy="20.5" r="20.5"/><path class="cls-2" d="M20.5,1c10.75,0,19.5,8.75,19.5,19.5s-8.75,19.5-19.5,19.5S1,31.25,1,20.5,9.75,1,20.5,1M20.5,0C9.18,0,0,9.18,0,20.5s9.18,20.5,20.5,20.5,20.5-9.18,20.5-20.5S31.82,0,20.5,0h0Z"/></g></g><path class="cls-1" d="M16.5,25.19v-11.37c0-.83.67-1.5,1.5-1.5h0c.83,0,1.5.67,1.5,1.5v11.37c0,.83-.67,1.5-1.5,1.5h0c-.83,0-1.5-.67-1.5-1.5ZM24,26.69h0c.83,0,1.5-.67,1.5-1.5v-11.37c0-.83-.67-1.5-1.5-1.5h0c-.83,0-1.5.67-1.5,1.5v11.37c0,.83.67,1.5,1.5,1.5Z"/></g></g></svg>