<?xml version="1.0" encoding="UTF-8"?><svg id="Camada_2" xmlns="http://www.w3.org/2000/svg" xmlns:xlink="http://www.w3.org/1999/xlink" viewBox="0 0 85 85"><defs><style>.cls-1{fill:url(#Gradiente_sem_nome_62-2);}.cls-1,.cls-2,.cls-3{stroke-width:0px;}.cls-2{fill:url(#Gradiente_sem_nome_62);}.cls-3{fill:#fff;}</style><linearGradient id="Gradiente_sem_nome_62" x1="0" y1="42.5" x2="85" y2="42.5" gradientUnits="userSpaceOnUse"><stop offset="0" stop-color="#1a4480"/><stop offset=".36" stop-color="#1c4581"/><stop offset=".52" stop-color="#234c86"/><stop offset=".65" stop-color="#30578e"/><stop offset=".76" stop-color="#42679a"/><stop offset=".85" stop-color="#5a7caa"/><stop offset=".94" stop-color="#7795bc"/><stop offset="1" stop-color="#92acce"/></linearGradient><linearGradient id="Gradiente_sem_nome_62-2" x1="8.92" y1="43.26" x2="75.65" y2="43.26" xlink:href="#Gradiente_sem_nome_62"/></defs><g id="Camada_1-2"><g id="Elipse_21"><circle class="cls-3" cx="42.5" cy="42.5" r="42.5"/><path class="cls-2" d="M42.5,3c21.78,0,39.5,17.72,39.5,39.5s-17.72,39.5-39.5,39.5S3,64.28,3,42.5,20.72,3,42.5,3M42.5,0C19.03,0,0,19.03,0,42.5s19.03,42.5,42.5,42.5,42.5-19.03,42.5-42.5S65.97,0,42.5,0h0Z"/></g><path class="cls-1" d="M42.28,27.83c-18.43,0-33.36,15.28-33.36,15.28,0,0,14.93,15.59,33.36,15.59s33.36-15.59,33.36-15.59c0,0-14.94-15.28-33.36-15.28ZM47.89,42.58c0,3-2.43,5.42-5.41,5.42s-5.42-2.43-5.42-5.42,2.43-5.41,5.42-5.41c.04,0,.06,0,.1,0,.24,2.82,2.49,5.07,5.31,5.31,0,.04,0,.06,0,.1ZM42.28,54.26c-11.41,0-21.6-6.94-26.71-11.12,4.22-3.39,11.87-8.58,20.82-10.3-3.24,2.02-5.4,5.63-5.4,9.73,0,6.34,5.13,11.48,11.47,11.48s11.48-5.14,11.48-11.48c0-1.09-.15-2.14-.44-3.14.44-.82.7-1.76.7-2.76,0-.82-.17-1.59-.47-2.3,6.51,2.33,11.95,6.11,15.25,8.76-5.1,4.18-15.3,11.12-26.7,11.12Z"/></g></svg>