<?xml version="1.0" encoding="UTF-8"?><svg id="Camada_2" xmlns="http://www.w3.org/2000/svg" xmlns:xlink="http://www.w3.org/1999/xlink" viewBox="0 0 85 85"><defs><style>.cls-1{fill:url(#Gradiente_sem_nome_62-3);}.cls-1,.cls-2,.cls-3,.cls-4{stroke-width:0px;}.cls-2{fill:url(#Gradiente_sem_nome_62-2);}.cls-3{fill:url(#Gradiente_sem_nome_62);}.cls-4{fill:#fff;}</style><linearGradient id="Gradiente_sem_nome_62" x1="0" y1="42.5" x2="85" y2="42.5" gradientUnits="userSpaceOnUse"><stop offset="0" stop-color="#1a4480"/><stop offset=".36" stop-color="#1c4581"/><stop offset=".52" stop-color="#234c86"/><stop offset=".65" stop-color="#30578e"/><stop offset=".76" stop-color="#42679a"/><stop offset=".85" stop-color="#5a7caa"/><stop offset=".94" stop-color="#7795bc"/><stop offset="1" stop-color="#92acce"/></linearGradient><linearGradient id="Gradiente_sem_nome_62-2" x1="29.43" y1="52.81" x2="55.57" y2="52.81" xlink:href="#Gradiente_sem_nome_62"/><linearGradient id="Gradiente_sem_nome_62-3" x1="32.91" y1="37.56" x2="52.08" y2="37.56" xlink:href="#Gradiente_sem_nome_62"/></defs><g id="Camada_1-2"><g id="Elipse_21"><circle class="cls-4" cx="42.5" cy="42.5" r="42.5"/><path class="cls-3" d="M42.5,3c21.78,0,39.5,17.72,39.5,39.5s-17.72,39.5-39.5,39.5S3,64.28,3,42.5,20.72,3,42.5,3M42.5,0C19.03,0,0,19.03,0,42.5s19.03,42.5,42.5,42.5,42.5-19.03,42.5-42.5S65.97,0,42.5,0h0Z"/></g><g id="Grupo_245"><path id="Caminho_316" class="cls-2" d="M54.7,38.87c-.48,0-.87.39-.87.87v5.23c0,6.25-5.07,11.33-11.33,11.33s-11.33-5.07-11.33-11.33v-5.23c0-.48-.4-.87-.87-.87s-.87.39-.87.87v5.23c0,6.88,5.34,12.58,12.2,13.03v7.01h-6.1c-.48,0-.87.39-.87.87s.39.86.87.86h13.94c.48,0,.87-.39.87-.86s-.4-.87-.87-.87h-6.1v-7.01c6.86-.45,12.2-6.16,12.2-13.03v-5.23c0-.48-.39-.87-.87-.87Z"/><path class="cls-1" d="M42.5,20.57c-5.29,0-9.59,4.3-9.59,9.59v14.81c0,5.29,4.3,9.58,9.59,9.58s9.58-4.29,9.58-9.58v-14.81c0-5.29-4.29-9.59-9.58-9.59ZM42.63,25.92c.08-.08.2-.12.31-.12.23,0,.43.18.44.41v.05c0,.1-.05.21-.13.28l-4.35,4.35c-.07.08-.18.12-.29.13h-.05c-.23-.01-.4-.21-.4-.44,0-.11.04-.22.12-.31l4.35-4.35ZM37.84,27.23l1.74-1.74c.08-.09.2-.13.31-.13.12,0,.23.05.31.13.17.17.17.44,0,.62l-1.74,1.74c-.17.16-.43.16-.59,0-.18-.16-.19-.44-.02-.62ZM50.34,44.97c0,4.33-3.51,7.84-7.84,7.84s-7.84-3.51-7.84-7.84v-1.74c0,4.33,3.51,7.84,7.84,7.84s7.84-3.51,7.84-7.84v1.74ZM50.34,40.61h-15.69v-1.74h15.69v1.74Z"/></g></g></svg>