<?xml version="1.0" encoding="UTF-8"?><svg id="Camada_2" xmlns="http://www.w3.org/2000/svg" xmlns:xlink="http://www.w3.org/1999/xlink" viewBox="0 0 85 85"><defs><style>.cls-1{fill:url(#Gradiente_sem_nome_62-2);}.cls-1,.cls-2,.cls-3{stroke-width:0px;}.cls-2{fill:url(#Gradiente_sem_nome_62);}.cls-3{fill:#fff;}</style><linearGradient id="Gradiente_sem_nome_62" x1="0" y1="42.5" x2="85" y2="42.5" gradientUnits="userSpaceOnUse"><stop offset="0" stop-color="#1a4480"/><stop offset=".36" stop-color="#1c4581"/><stop offset=".52" stop-color="#234c86"/><stop offset=".65" stop-color="#30578e"/><stop offset=".76" stop-color="#42679a"/><stop offset=".85" stop-color="#5a7caa"/><stop offset=".94" stop-color="#7795bc"/><stop offset="1" stop-color="#92acce"/></linearGradient><linearGradient id="Gradiente_sem_nome_62-2" x1="15.44" y1="42.52" x2="69.75" y2="42.52" xlink:href="#Gradiente_sem_nome_62"/></defs><g id="Camada_1-2"><g id="Elipse_21"><circle class="cls-3" cx="42.5" cy="42.5" r="42.5"/><path class="cls-2" d="M42.5,3c21.78,0,39.5,17.72,39.5,39.5s-17.72,39.5-39.5,39.5S3,64.28,3,42.5,20.72,3,42.5,3M42.5,0C19.03,0,0,19.03,0,42.5s19.03,42.5,42.5,42.5,42.5-19.03,42.5-42.5S65.97,0,42.5,0h0Z"/></g><path id="Subtração_61" class="cls-1" d="M35.47,39.37c1.29-5.45-2.08-10.92-7.54-12.22-5.45-1.29-10.92,2.08-12.22,7.54-1.29,5.45,2.08,10.92,7.54,12.22,5.45,1.29,10.92-2.08,12.22-7.54ZM46.32,33.31c1.29-5.45-2.08-10.92-7.54-12.22s-10.92,2.08-12.22,7.54c-1.29,5.45,2.08,10.92,7.54,12.22,5.45,1.29,10.92-2.08,12.22-7.54ZM60.97,34.98c1.29-5.45-2.08-10.92-7.54-12.22-5.45-1.29-10.92,2.08-12.22,7.54-1.29,5.45,2.08,10.92,7.54,12.22,5.45,1.29,10.92-2.08,12.22-7.54ZM58.63,44.85c1.29-5.45-2.08-10.92-7.54-12.22s-10.92,2.08-12.22,7.54,2.08,10.92,7.54,12.22c5.45,1.29,10.92-2.08,12.22-7.54ZM45.23,47.8c1.29-5.45-2.08-10.92-7.54-12.22-5.45-1.29-10.92,2.08-12.22,7.54-1.29,5.45,2.08,10.92,7.54,12.22,5.45,1.29,10.92-2.08,12.22-7.54ZM69.48,43.11c1.29-5.45-2.08-10.92-7.54-12.22-5.45-1.29-10.92,2.08-12.22,7.54-1.29,5.45,2.08,10.92,7.54,12.22,5.45,1.29,10.92-2.08,12.22-7.54ZM46.96,60.29c0-1.62-1.53-2.94-3.42-2.94s-3.42,1.31-3.42,2.94,1.53,2.94,3.42,2.94,3.42-1.31,3.42-2.94ZM54.3,62.26c0-1.09-1-1.97-2.24-1.97s-2.24.88-2.24,1.97,1,1.97,2.24,1.97,2.24-.88,2.24-1.97Z"/></g></svg>