<?xml version="1.0" encoding="UTF-8"?><svg id="Camada_2" xmlns="http://www.w3.org/2000/svg" xmlns:xlink="http://www.w3.org/1999/xlink" viewBox="0 0 85 85"><defs><style>.cls-1{fill:url(#Gradiente_sem_nome_62-2);}.cls-1,.cls-2,.cls-3{stroke-width:0px;}.cls-2{fill:url(#Gradiente_sem_nome_62);}.cls-3{fill:#fff;}</style><linearGradient id="Gradiente_sem_nome_62" x1="0" y1="42.5" x2="85" y2="42.5" gradientUnits="userSpaceOnUse"><stop offset="0" stop-color="#1a4480"/><stop offset=".36" stop-color="#1c4581"/><stop offset=".52" stop-color="#234c86"/><stop offset=".65" stop-color="#30578e"/><stop offset=".76" stop-color="#42679a"/><stop offset=".85" stop-color="#5a7caa"/><stop offset=".94" stop-color="#7795bc"/><stop offset="1" stop-color="#92acce"/></linearGradient><linearGradient id="Gradiente_sem_nome_62-2" x1="20.44" y1="41.83" x2="65.48" y2="41.83" xlink:href="#Gradiente_sem_nome_62"/></defs><g id="Camada_1-2"><g id="Elipse_21"><circle class="cls-3" cx="42.5" cy="42.5" r="42.5"/><path class="cls-2" d="M42.5,3c21.78,0,39.5,17.72,39.5,39.5s-17.72,39.5-39.5,39.5S3,64.28,3,42.5,20.72,3,42.5,3M42.5,0C19.03,0,0,19.03,0,42.5s19.03,42.5,42.5,42.5,42.5-19.03,42.5-42.5S65.97,0,42.5,0h0Z"/></g><path class="cls-1" d="M36.11,57.46h-10.42V20.64h27.68v4.93h-17.26v31.89ZM65.48,63.02v-30.27l-6.02-6.05h-.9l6.92,6.92h-6.92v-6.92h-20.76v36.32h27.68ZM61.19,41.52v1.32h-3.52v2.05h3.13v1.32h-3.13v3.23h-1.63v-7.92h5.15ZM51.24,41.52c.65-.01,1.3.15,1.87.47.55.31,1,.78,1.29,1.34.31.61.47,1.29.46,1.97v.36c.01.68-.14,1.36-.45,1.96-.29.56-.73,1.02-1.28,1.33-.57.32-1.21.48-1.86.48h-2.45v-7.92h2.43ZM44.71,41.52c.54-.01,1.08.1,1.57.33.43.2.79.52,1.04.93.25.41.37.89.36,1.37.03.7-.26,1.38-.8,1.83-.63.48-1.41.72-2.2.67h-1.43v2.79h-1.63v-7.92h3.08ZM51.22,48.13c.56.04,1.11-.2,1.47-.63.37-.52.55-1.15.52-1.79v-.42c.04-.65-.13-1.29-.5-1.83-.36-.43-.91-.66-1.47-.62h-.8v5.28h.79,0ZM45.7,45.03c.24-.23.36-.54.34-.87.01-.35-.11-.69-.34-.94-.25-.25-.59-.38-.94-.37h-1.5v2.48h1.45c.35.03.71-.08.99-.3ZM26.84,58.52c-.15-.15-.36-.24-.58-.24s-.42.09-.59.24l-1.1,1.11v-6.36c0-.45-.37-.82-.83-.82s-.82.37-.82.82v6.36l-1.1-1.11c-.32-.32-.84-.32-1.15,0-.33.32-.33.84,0,1.16l2.5,2.5c.16.16.37.24.58.24s.42-.08.59-.24l2.5-2.5c.15-.15.24-.35.24-.58s-.09-.42-.24-.58Z"/></g></svg>