<?xml version="1.0" encoding="UTF-8"?><svg id="Camada_2" xmlns="http://www.w3.org/2000/svg" xmlns:xlink="http://www.w3.org/1999/xlink" viewBox="0 0 85 85"><defs><style>.cls-1{fill:url(#Gradiente_sem_nome_62-2);}.cls-1,.cls-2,.cls-3{stroke-width:0px;}.cls-2{fill:url(#Gradiente_sem_nome_62);}.cls-3{fill:#fff;}</style><linearGradient id="Gradiente_sem_nome_62" x1="0" y1="42.5" x2="85" y2="42.5" gradientUnits="userSpaceOnUse"><stop offset="0" stop-color="#1a4480"/><stop offset=".36" stop-color="#1c4581"/><stop offset=".52" stop-color="#234c86"/><stop offset=".65" stop-color="#30578e"/><stop offset=".76" stop-color="#42679a"/><stop offset=".85" stop-color="#5a7caa"/><stop offset=".94" stop-color="#7795bc"/><stop offset="1" stop-color="#92acce"/></linearGradient><linearGradient id="Gradiente_sem_nome_62-2" x1="25.29" y1="41.48" x2="59.57" y2="41.48" xlink:href="#Gradiente_sem_nome_62"/></defs><g id="Camada_1-2"><g id="Elipse_21"><circle class="cls-3" cx="42.5" cy="42.5" r="42.5"/><path class="cls-2" d="M42.5,3c21.78,0,39.5,17.72,39.5,39.5s-17.72,39.5-39.5,39.5S3,64.28,3,42.5,20.72,3,42.5,3M42.5,0C19.03,0,0,19.03,0,42.5s19.03,42.5,42.5,42.5,42.5-19.03,42.5-42.5S65.97,0,42.5,0h0Z"/></g><path class="cls-1" d="M37.64,52.71c-.83,0-1.5-.69-1.48-1.52.16-7.39,1.68-10.1,8.8-14.22,3.3-1.89,4.17-3.7,4.17-6.38,0-2.97-2.5-5.4-6.35-5.4-4.19,0-6.93,2.39-7.42,6.29-.1.75-.71,1.32-1.46,1.32h-7.12c-.86,0-1.55-.74-1.48-1.6.74-9.49,8.09-14.94,17.82-14.94s16.46,6.6,16.46,14.4c0,5.98-2.25,9.54-9.07,13.31-3.25,1.8-3.96,3.72-4.08,7.3-.03.8-.67,1.44-1.47,1.44h-7.31ZM36.56,62.05c.16,2.54,2.09,4.47,4.63,4.64,2.96.19,5.53-2.38,5.34-5.34-.16-2.54-2.09-4.47-4.63-4.64-2.96-.19-5.54,2.38-5.34,5.34Z"/></g></svg>