<?xml version="1.0" encoding="UTF-8"?><svg id="Camada_2" xmlns="http://www.w3.org/2000/svg" xmlns:xlink="http://www.w3.org/1999/xlink" viewBox="0 0 85 85"><defs><style>.cls-1{fill:url(#Gradiente_sem_nome_62-2);}.cls-1,.cls-2,.cls-3{stroke-width:0px;}.cls-2{fill:url(#Gradiente_sem_nome_62);}.cls-3{fill:#fff;}</style><linearGradient id="Gradiente_sem_nome_62" x1="0" y1="42.5" x2="85" y2="42.5" gradientUnits="userSpaceOnUse"><stop offset="0" stop-color="#1a4480"/><stop offset=".36" stop-color="#1c4581"/><stop offset=".52" stop-color="#234c86"/><stop offset=".65" stop-color="#30578e"/><stop offset=".76" stop-color="#42679a"/><stop offset=".85" stop-color="#5a7caa"/><stop offset=".94" stop-color="#7795bc"/><stop offset="1" stop-color="#92acce"/></linearGradient><linearGradient id="Gradiente_sem_nome_62-2" x1="25.56" y1="41.73" x2="58.18" y2="41.73" xlink:href="#Gradiente_sem_nome_62"/></defs><g id="Camada_1-2"><g id="Elipse_21"><circle class="cls-3" cx="42.5" cy="42.5" r="42.5"/><path class="cls-2" d="M42.5,3c21.78,0,39.5,17.72,39.5,39.5s-17.72,39.5-39.5,39.5S3,64.28,3,42.5,20.72,3,42.5,3M42.5,0C19.03,0,0,19.03,0,42.5s19.03,42.5,42.5,42.5,42.5-19.03,42.5-42.5S65.97,0,42.5,0h0Z"/></g><path id="Grupo_110" class="cls-1" d="M42.46,71.23c-1.39-.17-2.72-.66-3.89-1.44-.5-.3-.97-.66-1.4-1.06h10.57c-.43.4-.9.76-1.4,1.06-1.17.78-2.5,1.27-3.89,1.44ZM48.44,67.9h-11.96c-.17-.25-.26-.54-.28-.83v-.83h12.51v.83c-.02.3-.11.59-.28.83h0ZM48.72,65.4h-12.51v-1.67h12.51v1.67h0ZM48.72,62.89h-12.51v-1.67h12.51v1.67ZM48.72,61.16h0v-.77h-5.01v-5.32l3.29-6.59h0c.03-.06.05-.12.05-.18,0-.23-.19-.42-.42-.42-.16,0-.3.09-.37.23h0l-3.8,5.92-3.8-5.93h0c-.07-.14-.21-.23-.37-.23-.23,0-.42.19-.42.42,0,.06.02.13.05.18h0l3.29,6.59v5.32h-5.01v.77c0-.11-.01-.22-.02-.35-.18-1.86-1.49-4.03-3.02-6.54-2.18-3.58-4.89-8.05-4.89-12.85,0-7.02,6.36-12.72,14.18-12.72s14.18,5.71,14.18,12.72c0,4.8-2.71,9.27-4.89,12.85-1.52,2.51-2.84,4.68-3.02,6.54-.01.12-.02.24-.02.36h0ZM43.78,23.28v-9.79c0-.69-.56-1.25-1.25-1.25s-1.25.56-1.25,1.25v9.79c0,.69.56,1.25,1.25,1.25s1.25-.56,1.25-1.25ZM35.66,26.13c.47-.51.43-1.3-.08-1.77l-7.93-7.27c-.51-.47-1.3-.43-1.77.08-.47.51-.43,1.3.08,1.77l7.93,7.27c.24.22.54.33.85.33.34,0,.68-.14.92-.41ZM49.85,26.2l7.93-7.27c.51-.47.54-1.26.08-1.77-.47-.51-1.26-.54-1.77-.08l-7.93,7.27c-.51.47-.54,1.26-.08,1.77.25.27.58.41.92.41.3,0,.61-.11.85-.33Z"/></g></svg>